<?xml version="1.0" encoding="UTF-8"?>
<svg id="Capa_1" xmlns="http://www.w3.org/2000/svg" viewBox="0 0 512 512">
  <defs>
    <style>
      .cls-1 {
        fill: #fff;
      }
    </style>
  </defs>
  <path class="cls-1" d="M303.56,11.46c-1.57-.71-3.19.97-4.7,1.94-3.35,2.15-6.85,4.08-10.3,6.09-24.3,14.11-48.48,28.43-73,42.15-4.78,2.68-5.55,5.68-5.54,10.4.09,87.3.05,174.6.05,261.91,0,11.1,0,22.19,0,33.29l-23.87-13.78c0-88.64-.02-177.28-.02-265.92,0-1.34-.1-2.69.02-4.02.33-3.94-.89-4.85-4.45-2.72-9.41,5.64-18.78,11.37-28.43,16.58-16.27,8.77-31.63,19.11-48.28,27.24-9.17,4.48-14.3,10.47-14.17,22.86.86,81.92.66,163.85.18,245.77-.06,9.94,3.28,14.88,11.64,19.49,27.67,15.29,54.87,31.46,83.54,48.04v-.36l26.63,15.38c.78.72,1.75,1.38,2.94,2.01,3.14,1.66,6.26,3.37,9.36,5.09l19.67,11.36c2.89,1.72,5.77,3.44,8.65,5.18.7.42,1.35.73,1.96.95l.6.35.09-.16c1.69.39,3.2-.03,5.12-1.18,12.08-7.23,24.15-14.52,36.58-21.11,5.25-2.78,7.09-6,7.07-11.86-.18-74.57-.12-149.15-.12-223.73,0-66.98,0-133.97,0-200.95,0-8.26.06-16.52-.03-24.78-.02-1.9,1.02-4.48-1.18-5.48Z"/>
  <path class="cls-1" d="M421.07,341.2c-.04-41.62.25-83.24-.15-124.86-.05-.43-.1-.86-.16-1.29-.48-.71-.79-1.71-1.45-2.09-18.52-10.76-36.93-21.73-55.68-32.07-10.91-6.02-21.15-13.28-32.77-18-2.25,2.73-1.39,6-1.39,9.04-.05,59.64-.04,119.27-.04,178.91,0,32.83-.03,65.67.06,98.5,0,2.91-1.24,6.45,2.52,8.33,1.8-.78,3.71-1.39,5.4-2.37,19.71-11.42,39.47-22.77,59.05-34.4,8.18-4.86,17.21-8.36,24.32-14.96.05-.43.1-.86.15-1.29.39-21.14.16-42.29.14-63.43Z"/>
</svg>